<?xml version="1.0" standalone="no"?><svg xmlns="http://www.w3.org/2000/svg" viewBox="0 0 1440 320"><path fill="#0099ff" fill-opacity="1" d="M0,32L26.7,80C53.3,128,107,224,160,224C213.3,224,267,128,320,90.7C373.3,53,427,75,480,117.3C533.3,160,587,224,640,229.3C693.3,235,747,181,800,160C853.3,139,907,149,960,181.3C1013.3,213,1067,267,1120,250.7C1173.3,235,1227,149,1280,112C1333.3,75,1387,85,1413,90.7L1440,96L1440,320L1413.3,320C1386.7,320,1333,320,1280,320C1226.7,320,1173,320,1120,320C1066.7,320,1013,320,960,320C906.7,320,853,320,800,320C746.7,320,693,320,640,320C586.7,320,533,320,480,320C426.7,320,373,320,320,320C266.7,320,213,320,160,320C106.7,320,53,320,27,320L0,320Z"></path></svg>